<svg width="32" height="32" viewBox="0 0 32 32" fill="none" xmlns="http://www.w3.org/2000/svg">
  <!-- Intricate network/connected nodes theme -->
  <g>
    <!-- Corner brackets -->
    <path d="M2 2 L6 2 L6 4 L4 4 L4 6 L2 6 Z" fill="#fab617"/>
    <path d="M26 2 L30 2 L30 6 L28 6 L28 4 L26 4 Z" fill="#fab617"/>
    <path d="M2 26 L2 30 L6 30 L6 28 L4 28 L4 26 Z" fill="#fab617"/>
    <path d="M28 26 L28 28 L26 28 L26 30 L30 30 L30 26 Z" fill="#fab617"/>

    <!-- Network nodes -->
    <circle cx="16" cy="8" r="1.5" fill="#fab617"/>
    <circle cx="10" cy="13" r="1.5" fill="#fab617"/>
    <circle cx="22" cy="13" r="1.5" fill="#fab617"/>
    <circle cx="8" cy="20" r="1.5" fill="#fab617"/>
    <circle cx="16" cy="20" r="1.5" fill="#fab617"/>
    <circle cx="24" cy="20" r="1.5" fill="#fab617"/>
    <circle cx="12" cy="26" r="1.5" fill="#fab617"/>
    <circle cx="20" cy="26" r="1.5" fill="#fab617"/>

    <!-- Connection lines -->
    <line x1="16" y1="8" x2="10" y2="13" stroke="#fab617" stroke-width="1" opacity="0.6"/>
    <line x1="16" y1="8" x2="22" y2="13" stroke="#fab617" stroke-width="1" opacity="0.6"/>
    <line x1="10" y1="13" x2="8" y2="20" stroke="#fab617" stroke-width="1" opacity="0.6"/>
    <line x1="10" y1="13" x2="16" y2="20" stroke="#fab617" stroke-width="1" opacity="0.6"/>
    <line x1="22" y1="13" x2="16" y2="20" stroke="#fab617" stroke-width="1" opacity="0.6"/>
    <line x1="22" y1="13" x2="24" y2="20" stroke="#fab617" stroke-width="1" opacity="0.6"/>
    <line x1="8" y1="20" x2="12" y2="26" stroke="#fab617" stroke-width="1" opacity="0.6"/>
    <line x1="16" y1="20" x2="12" y2="26" stroke="#fab617" stroke-width="1" opacity="0.6"/>
    <line x1="16" y1="20" x2="20" y2="26" stroke="#fab617" stroke-width="1" opacity="0.6"/>
    <line x1="24" y1="20" x2="20" y2="26" stroke="#fab617" stroke-width="1" opacity="0.6"/>

    <!-- Highlight central node -->
    <circle cx="16" cy="20" r="2.5" stroke="#fab617" stroke-width="0.8" fill="none" opacity="0.4"/>
  </g>
</svg>