<svg width="32" height="32" viewBox="0 0 32 32" fill="none" xmlns="http://www.w3.org/2000/svg">
  <!-- Modern/tech theme with clean lines -->
  <g>
    <!-- Corner brackets -->
    <path d="M2 2 L6 2 L6 4 L4 4 L4 6 L2 6 Z" fill="#fab617"/>
    <path d="M26 2 L30 2 L30 6 L28 6 L28 4 L26 4 Z" fill="#fab617"/>
    <path d="M2 26 L2 30 L6 30 L6 28 L4 28 L4 26 Z" fill="#fab617"/>
    <path d="M28 26 L28 28 L26 28 L26 30 L30 30 L30 26 Z" fill="#fab617"/>

    <!-- Angular N shape -->
    <path d="M10 8 L10 24 L12 24 L12 14 L20 24 L22 24 L22 8 L20 8 L20 18 L12 8 Z"
          fill="#fab617" stroke="#000" stroke-width="0.5"/>

    <!-- Tech accent lines -->
    <rect x="8" y="9" width="16" height="1" fill="#fab617" opacity="0.3"/>
    <rect x="8" y="22" width="16" height="1" fill="#fab617" opacity="0.3"/>

    <!-- Data points -->
    <circle cx="9" cy="10" r="0.8" fill="#fab617"/>
    <circle cx="23" cy="10" r="0.8" fill="#fab617"/>
    <circle cx="9" cy="22" r="0.8" fill="#fab617"/>
    <circle cx="23" cy="22" r="0.8" fill="#fab617"/>

    <!-- Scan line -->
    <rect x="8" y="15" width="16" height="0.5" fill="#fab617" opacity="0.4"/>
  </g>
</svg>