<svg width="32" height="32" viewBox="0 0 32 32" fill="none" xmlns="http://www.w3.org/2000/svg">
  <!-- Evening star/celestial theme -->
  <g>
    <!-- Corner brackets -->
    <path d="M2 2 L6 2 L6 4 L4 4 L4 6 L2 6 Z" fill="#fab617"/>
    <path d="M26 2 L30 2 L30 6 L28 6 L28 4 L26 4 Z" fill="#fab617"/>
    <path d="M2 26 L2 30 L6 30 L6 28 L4 28 L4 26 Z" fill="#fab617"/>
    <path d="M28 26 L28 28 L26 28 L26 30 L30 30 L30 26 Z" fill="#fab617"/>

    <!-- Star frame -->
    <path d="M16 7 L18 13 L24 13 L19 17 L21 23 L16 19 L11 23 L13 17 L8 13 L14 13 Z"
          stroke="#fab617" stroke-width="1.5" fill="none"/>

    <!-- Inner star -->
    <path d="M16 11 L17 14 L20 14 L17.5 15.5 L18.5 18.5 L16 16.5 L13.5 18.5 L14.5 15.5 L12 14 L15 14 Z"
          fill="#fab617"/>

    <!-- Orbit rings -->
    <circle cx="16" cy="16" r="9" stroke="#fab617" stroke-width="0.5" opacity="0.3" fill="none"/>
    <circle cx="16" cy="16" r="11" stroke="#fab617" stroke-width="0.5" opacity="0.3" fill="none"/>

    <!-- Small orbital dots -->
    <circle cx="16" cy="6" r="1" fill="#fab617" opacity="0.6"/>
    <circle cx="26" cy="16" r="1" fill="#fab617" opacity="0.6"/>
  </g>
</svg>