<svg xmlns="http://www.w3.org/2000/svg" width="400" height="400" viewBox="0 0 400 400">
  <defs>
    <pattern id="circuitPattern" patternUnits="userSpaceOnUse" width="20" height="20">
      <line x1="0" y1="10" x2="20" y2="10" stroke="#00ff88" stroke-width="0.5" opacity="0.3"/>
      <line x1="10" y1="0" x2="10" y2="20" stroke="#00ff88" stroke-width="0.5" opacity="0.3"/>
      <circle cx="10" cy="10" r="1" fill="#00ff88" opacity="0.5"/>
    </pattern>
    <filter id="greenGlow">
      <feGaussianBlur stdDeviation="3" result="coloredBlur"/>
      <feMerge>
        <feMergeNode in="coloredBlur"/>
        <feMergeNode in="SourceGraphic"/>
      </feMerge>
    </filter>
    <mask id="frameMask2">
      <rect x="0" y="0" width="400" height="400" fill="white"/>
      <rect x="25" y="25" width="350" height="350" fill="black"/>
    </mask>
  </defs>
  <rect x="0" y="0" width="400" height="400" fill="#0a0a0a" mask="url(#frameMask2)"/>
  <rect x="0" y="0" width="400" height="400" fill="url(#circuitPattern)" mask="url(#frameMask2)" opacity="0.6"/>
  <rect x="0" y="0" width="400" height="400" fill="none" stroke="#00ff88" stroke-width="2" filter="url(#greenGlow)"/>
  <rect x="22" y="22" width="356" height="356" fill="none" stroke="#00ff88" stroke-width="1" opacity="0.3"/>
  
  <g opacity="0.5">
    <line x1="0" y1="50" x2="25" y2="50" stroke="#00ff88" stroke-width="2"/>
    <line x1="375" y1="50" x2="400" y2="50" stroke="#00ff88" stroke-width="2"/>
    <line x1="0" y1="150" x2="25" y2="150" stroke="#00ff88" stroke-width="2"/>
    <line x1="375" y1="150" x2="400" y2="150" stroke="#00ff88" stroke-width="2"/>
    <line x1="0" y1="250" x2="25" y2="250" stroke="#00ff88" stroke-width="2"/>
    <line x1="375" y1="250" x2="400" y2="250" stroke="#00ff88" stroke-width="2"/>
    <line x1="0" y1="350" x2="25" y2="350" stroke="#00ff88" stroke-width="2"/>
    <line x1="375" y1="350" x2="400" y2="350" stroke="#00ff88" stroke-width="2"/>
  </g>
</svg>