<svg xmlns="http://www.w3.org/2000/svg" width="400" height="400" viewBox="0 0 400 400">
  <defs>
    <linearGradient id="steelGradient" x1="0%" y1="0%" x2="0%" y2="100%">
      <stop offset="0%" style="stop-color:#6a6a6a;stop-opacity:1" />
      <stop offset="50%" style="stop-color:#4a4a4a;stop-opacity:1" />
      <stop offset="100%" style="stop-color:#3a3a3a;stop-opacity:1" />
    </linearGradient>
    <filter id="innerShadow">
      <feGaussianBlur in="SourceAlpha" stdDeviation="2"/>
      <feOffset dx="2" dy="2" result="offsetblur"/>
      <feFlood flood-color="#000000" flood-opacity="0.5"/>
      <feComposite in2="offsetblur" operator="in"/>
      <feMerge>
        <feMergeNode/>
        <feMergeNode in="SourceGraphic"/>
      </feMerge>
    </filter>
    <mask id="frameMask3">
      <rect x="0" y="0" width="400" height="400" fill="white"/>
      <rect x="30" y="30" width="340" height="340" fill="black"/>
    </mask>
  </defs>
  
  <rect x="0" y="0" width="400" height="400" fill="url(#steelGradient)" mask="url(#frameMask3)" filter="url(#innerShadow)"/>
  
  <!-- Rivets -->
  <g opacity="0.8">
    <!-- Top row -->
    <circle cx="15" cy="15" r="4" fill="#888888"/>
    <circle cx="55" cy="15" r="4" fill="#888888"/>
    <circle cx="95" cy="15" r="4" fill="#888888"/>
    <circle cx="135" cy="15" r="4" fill="#888888"/>
    <circle cx="175" cy="15" r="4" fill="#888888"/>
    <circle cx="215" cy="15" r="4" fill="#888888"/>
    <circle cx="255" cy="15" r="4" fill="#888888"/>
    <circle cx="295" cy="15" r="4" fill="#888888"/>
    <circle cx="335" cy="15" r="4" fill="#888888"/>
    <circle cx="375" cy="15" r="4" fill="#888888"/>
    
    <!-- Bottom row -->
    <circle cx="15" cy="385" r="4" fill="#888888"/>
    <circle cx="55" cy="385" r="4" fill="#888888"/>
    <circle cx="95" cy="385" r="4" fill="#888888"/>
    <circle cx="135" cy="385" r="4" fill="#888888"/>
    <circle cx="175" cy="385" r="4" fill="#888888"/>
    <circle cx="215" cy="385" r="4" fill="#888888"/>
    <circle cx="255" cy="385" r="4" fill="#888888"/>
    <circle cx="295" cy="385" r="4" fill="#888888"/>
    <circle cx="335" cy="385" r="4" fill="#888888"/>
    <circle cx="385" cy="385" r="4" fill="#888888"/>
    
    <!-- Left column -->
    <circle cx="15" cy="55" r="4" fill="#888888"/>
    <circle cx="15" cy="95" r="4" fill="#888888"/>
    <circle cx="15" cy="135" r="4" fill="#888888"/>
    <circle cx="15" cy="175" r="4" fill="#888888"/>
    <circle cx="15" cy="215" r="4" fill="#888888"/>
    <circle cx="15" cy="255" r="4" fill="#888888"/>
    <circle cx="15" cy="295" r="4" fill="#888888"/>
    <circle cx="15" cy="335" r="4" fill="#888888"/>
    
    <!-- Right column -->
    <circle cx="385" cy="55" r="4" fill="#888888"/>
    <circle cx="385" cy="95" r="4" fill="#888888"/>
    <circle cx="385" cy="135" r="4" fill="#888888"/>
    <circle cx="385" cy="175" r="4" fill="#888888"/>
    <circle cx="385" cy="215" r="4" fill="#888888"/>
    <circle cx="385" cy="255" r="4" fill="#888888"/>
    <circle cx="385" cy="295" r="4" fill="#888888"/>
    <circle cx="385" cy="335" r="4" fill="#888888"/>
  </g>
</svg>